<svg width="196" height="196" viewBox="0 0 196 196" fill="none" xmlns="http://www.w3.org/2000/svg">
<path fill-rule="evenodd" clip-rule="evenodd" d="M97.9999 0C152.124 0 196 43.876 196 97.9999C196 118.618 189.633 137.748 178.758 153.533L163.979 140.24L163.961 140.263L144.203 120.505C141.712 118.014 138.934 116.386 135.869 115.619C132.931 114.853 129.962 114.885 126.96 115.715C124.087 116.545 121.532 118.078 119.297 120.313C117.062 122.548 115.498 125.135 114.604 128.072C113.837 131.01 113.805 133.979 114.508 136.981C115.338 139.982 116.998 142.728 119.489 145.218L142.062 167.791C142.064 167.79 142.067 167.788 142.069 167.786L153.578 178.726C137.785 189.62 118.637 196 97.9999 196C43.876 196 0 152.124 0 97.9999C8.31652e-06 77.7734 6.12792 58.9782 16.6281 43.3692L30.9605 56.6899L50.8526 76.5822C53.3431 79.0727 56.0891 80.733 59.0905 81.5632C62.0919 82.2657 65.0614 82.2337 67.9989 81.4674C70.9364 80.5733 73.5229 79.0088 75.758 76.7737C77.993 74.5387 79.5256 71.9842 80.3557 69.1105C81.1859 66.1092 81.2179 63.1398 80.4516 60.2023C79.6853 57.137 78.0569 54.359 75.5664 51.8685L52.7029 29.005C52.6913 29.0126 52.6797 29.0203 52.668 29.0279L41.4577 17.9471C57.4331 6.64286 76.9407 8.65877e-06 97.9999 0ZM97.9999 15.4736C87.0965 15.4736 76.687 17.5883 67.1591 21.4296L86.6779 40.9484C90.8287 45.0993 93.6067 49.793 95.0116 55.0295C96.4165 60.266 96.3207 65.5984 94.7242 71.0264C93.0638 76.3906 89.8708 81.4356 85.1452 86.1611C80.4196 90.8867 75.3747 94.0798 70.0105 95.7401C64.5825 97.3366 59.2502 97.4323 54.0137 96.0274C48.7772 94.6225 44.0836 91.8447 39.9327 87.6938L20.8573 68.6184C17.3788 77.7463 15.4736 87.6506 15.4736 97.9999L15.4753 98.5336C15.5415 108.986 17.5512 118.978 21.1607 128.165L39.9327 109.393C44.0836 105.242 48.7772 102.464 54.0137 101.059C59.2502 99.6545 64.5825 99.7504 70.0105 101.347C75.3747 103.007 80.4198 106.2 85.1454 110.926C89.871 115.651 93.0638 120.696 94.7242 126.061C96.3207 131.489 96.4165 136.821 95.0116 142.057C93.6067 147.294 90.8289 151.988 86.678 156.139L67.9369 174.879C77.0961 178.464 87.0523 180.459 97.4662 180.524L97.9999 180.526C108.349 180.526 118.253 178.621 127.381 175.142L108.377 156.138C104.226 151.987 101.448 147.294 100.043 142.057C98.6386 136.821 98.7344 131.489 100.331 126.061C101.991 120.696 105.184 115.651 109.91 110.926C114.636 106.2 119.68 103.007 125.045 101.347C130.473 99.7504 135.805 99.6545 141.041 101.059C146.278 102.464 150.972 105.242 155.122 109.393L174.57 128.841C178.348 119.468 180.457 109.243 180.524 98.5336L180.526 97.9999C180.526 87.3925 178.525 77.2525 174.879 67.9369L155.122 87.6936C150.972 91.8445 146.278 94.6225 141.041 96.0274C135.805 97.4323 130.473 97.3364 125.045 95.74C119.68 94.0796 114.636 90.8866 109.91 86.161C105.184 81.4354 101.991 76.3905 100.331 71.0263C98.7344 65.5982 98.6386 60.2659 100.043 55.0295C101.448 49.793 104.226 45.0991 108.377 40.9483L128.165 21.1604C118.978 17.5509 108.986 15.5415 98.5336 15.4753L97.9999 15.4736ZM68.0948 115.715C65.0934 114.885 62.1239 114.853 59.1863 115.619C56.1211 116.386 53.3433 118.014 50.8527 120.505L28.6324 142.725C35.0207 152.612 43.4652 161.047 53.3614 167.423L75.5664 145.218C78.0569 142.728 79.7173 139.982 80.5475 136.981C81.2499 133.979 81.2179 131.01 80.4516 128.072C79.5576 125.135 77.993 122.548 75.758 120.313C73.5229 118.078 70.9684 116.545 68.0948 115.715ZM119.489 51.8683C116.998 54.3589 115.37 57.1368 114.604 60.2021C113.837 63.1396 113.869 66.1091 114.699 69.1105C115.53 71.9842 117.062 74.5385 119.297 76.7736C121.532 79.0086 124.119 80.5733 127.056 81.4674C129.994 82.2337 132.963 82.2655 135.965 81.5631C138.966 80.7329 141.712 79.0725 144.203 76.582L167.423 53.3614C161.047 43.4652 152.612 35.0203 142.725 28.6321L119.489 51.8683Z" fill="#47CD63"/>
<path d="M98.0263 107.186C96.7504 107.186 95.55 106.951 94.4252 106.481C93.3171 106.011 92.3434 105.356 91.504 104.517C90.6645 103.66 90.0014 102.678 89.5145 101.57C89.0444 100.462 88.8094 99.2702 88.8094 97.9942C88.8094 96.7015 89.0444 95.5011 89.5145 94.3931C90.0014 93.285 90.6645 92.3113 91.504 91.4719C92.3434 90.6157 93.3171 89.9525 94.4252 89.4824C95.55 89.0123 96.7504 88.7773 98.0263 88.7773C99.3023 88.7773 100.494 89.0123 101.602 89.4824C102.71 89.9525 103.684 90.6157 104.523 91.4719C105.38 92.3113 106.043 93.285 106.513 94.3931C107 95.5011 107.243 96.7015 107.243 97.9942C107.243 99.2702 107 100.462 106.513 101.57C106.043 102.678 105.38 103.66 104.523 104.517C103.684 105.356 102.71 106.011 101.602 106.481C100.494 106.951 99.3023 107.186 98.0263 107.186ZM98.0263 105.7C99.1008 105.7 100.1 105.507 101.023 105.121C101.963 104.718 102.777 104.164 103.466 103.459C104.171 102.754 104.725 101.931 105.128 100.991C105.531 100.051 105.732 99.0435 105.732 97.969C105.732 96.8946 105.531 95.8957 105.128 94.9723C104.725 94.0321 104.171 93.2179 103.466 92.5295C102.777 91.8244 101.963 91.2704 101.023 90.8675C100.1 90.4646 99.1008 90.2631 98.0263 90.2631C96.9519 90.2631 95.9445 90.4646 95.0044 90.8675C94.081 91.2704 93.2584 91.8244 92.5365 92.5295C91.8313 93.2179 91.2773 94.0321 90.8744 94.9723C90.4883 95.8957 90.2952 96.8946 90.2952 97.969C90.2952 99.0435 90.4966 100.051 90.8996 100.991C91.3025 101.931 91.8565 102.754 92.5616 103.459C93.2668 104.164 94.081 104.718 95.0044 105.121C95.9445 105.507 96.9519 105.7 98.0263 105.7ZM94.4504 102.779V93.2347H98.6811C99.2855 93.2347 99.8395 93.3774 100.343 93.6628C100.847 93.9314 101.25 94.3091 101.552 94.796C101.854 95.2829 102.005 95.8369 102.005 96.4581C102.005 97.0625 101.846 97.6249 101.527 98.1453C101.225 98.649 100.796 99.0351 100.242 99.3037L101.225 100.966C101.275 101.033 101.334 101.092 101.401 101.142C101.468 101.192 101.552 101.218 101.653 101.218H102.484V102.779H101.325C100.956 102.779 100.62 102.687 100.318 102.502C100.033 102.317 99.7975 102.082 99.6128 101.797L98.4544 99.757H96.3391V102.779H94.4504ZM96.3391 98.0698H98.4796C98.9161 98.0698 99.2939 97.9355 99.6128 97.6668C99.9318 97.3814 100.091 96.9701 100.091 96.4329C100.091 95.9964 99.9318 95.6438 99.6128 95.3752C99.2939 95.0898 98.9161 94.9471 98.4796 94.9471H96.3391V98.0698Z" fill="#47CD63"/>
</svg>
